<svg xmlns="http://www.w3.org/2000/svg" width="1600" height="900" viewBox="0 0 1600 900">
<defs><linearGradient id="bg" x1="0" y1="0" x2="1" y2="1"><stop stop-color="#07111F"/><stop offset="1" stop-color="#0E2037"/></linearGradient><filter id="glow"><feGaussianBlur stdDeviation="8" result="b"/><feMerge><feMergeNode in="b"/><feMergeNode in="SourceGraphic"/></feMerge></filter><pattern id="grid" width="48" height="48" patternUnits="userSpaceOnUse"><path d="M48 0H0V48" fill="none" stroke="#6EE7F9" stroke-opacity=".055"/></pattern></defs>
<rect width="100%" height="100%" rx="32" fill="url(#bg)"/><rect width="100%" height="100%" rx="32" fill="url(#grid)"/>
<circle cx="1460" cy="90" r="170" fill="#FB7185" opacity=".08"/><circle cx="90" cy="830" r="220" fill="#22D3EE" opacity=".06"/>
<text x="72" y="82" fill="#FB7185" font-size="24" font-family="Segoe UI,Microsoft YaHei,sans-serif" letter-spacing="3">THREETWOA · OPEN SOURCE</text>
<text x="72" y="140" fill="#F8FAFC" font-size="48" font-weight="700" font-family="Segoe UI,Microsoft YaHei,sans-serif">Yu Picture</text>
<text x="72" y="182" fill="#94A3B8" font-size="24" font-family="Segoe UI,Microsoft YaHei,sans-serif">PRIMARY WORKFLOW · 用户与系统主链路</text>
<circle cx="140" cy="455" r="66" fill="#10253D" stroke="#FB7185" stroke-width="3"/><text x="140" y="447" text-anchor="middle" fill="#FB7185" font-size="22" font-weight="700" font-family="Consolas">01</text><text x="140" y="555" text-anchor="middle" fill="#F8FAFC" font-size="23" font-family="Segoe UI,Microsoft YaHei,sans-serif">上传/抓取</text><path d="M215 455H395" stroke="#22D3EE" stroke-width="4" stroke-dasharray="10 10"/><path d="M382 442L398 455L382 468" fill="none" stroke="#22D3EE" stroke-width="4"/><circle cx="470" cy="455" r="66" fill="#10253D" stroke="#FB7185" stroke-width="3"/><text x="470" y="447" text-anchor="middle" fill="#FB7185" font-size="22" font-weight="700" font-family="Consolas">02</text><text x="470" y="555" text-anchor="middle" fill="#F8FAFC" font-size="23" font-family="Segoe UI,Microsoft YaHei,sans-serif">校验存储</text><path d="M545 455H725" stroke="#22D3EE" stroke-width="4" stroke-dasharray="10 10"/><path d="M712 442L728 455L712 468" fill="none" stroke="#22D3EE" stroke-width="4"/><circle cx="800" cy="455" r="66" fill="#10253D" stroke="#FB7185" stroke-width="3"/><text x="800" y="447" text-anchor="middle" fill="#FB7185" font-size="22" font-weight="700" font-family="Consolas">03</text><text x="800" y="555" text-anchor="middle" fill="#F8FAFC" font-size="23" font-family="Segoe UI,Microsoft YaHei,sans-serif">元数据处理</text><path d="M875 455H1055" stroke="#22D3EE" stroke-width="4" stroke-dasharray="10 10"/><path d="M1042 442L1058 455L1042 468" fill="none" stroke="#22D3EE" stroke-width="4"/><circle cx="1130" cy="455" r="66" fill="#10253D" stroke="#FB7185" stroke-width="3"/><text x="1130" y="447" text-anchor="middle" fill="#FB7185" font-size="22" font-weight="700" font-family="Consolas">04</text><text x="1130" y="555" text-anchor="middle" fill="#F8FAFC" font-size="23" font-family="Segoe UI,Microsoft YaHei,sans-serif">搜索分类</text><path d="M1205 455H1385" stroke="#22D3EE" stroke-width="4" stroke-dasharray="10 10"/><path d="M1372 442L1388 455L1372 468" fill="none" stroke="#22D3EE" stroke-width="4"/><circle cx="1460" cy="455" r="66" fill="#10253D" stroke="#FB7185" stroke-width="3"/><text x="1460" y="447" text-anchor="middle" fill="#FB7185" font-size="22" font-weight="700" font-family="Consolas">05</text><text x="1460" y="555" text-anchor="middle" fill="#F8FAFC" font-size="23" font-family="Segoe UI,Microsoft YaHei,sans-serif">空间协作</text><rect x="260" y="680" width="1080" height="72" rx="18" fill="#0B1B2D" stroke="#334155"/><text x="800" y="724" text-anchor="middle" fill="#CBD5E1" font-size="21" font-family="Segoe UI,Microsoft YaHei,sans-serif">每一步都有输入、输出和失败语义；禁止用“看似成功”掩盖外部依赖失败</text>
<text x="1528" y="850" text-anchor="end" fill="#64748B" font-size="18" font-family="Consolas,monospace">maintained by threetwoa</text></svg>
